<svg width="137" height="42" viewBox="0 0 137 42" fill="none" xmlns="http://www.w3.org/2000/svg">
<rect x="0.5" y="0.5" width="136" height="41" rx="9.5" stroke="white"/>
<path d="M27.9248 20.7585C27.8896 17.7245 30.5687 16.2462 30.698 16.18C29.1821 14.1058 26.832 13.819 26.0094 13.7969C24.0353 13.5983 22.12 14.9002 21.1211 14.9002C20.0988 14.9002 18.5477 13.808 16.8791 13.8411C14.7288 13.8742 12.7194 15.0436 11.6266 16.853C9.35869 20.5489 11.0508 25.9769 13.2247 28.9667C14.3175 30.434 15.5866 32.0669 17.2552 32.0007C18.8885 31.9345 19.4996 31.0298 21.4619 31.0298C23.4125 31.0298 23.9766 32.0007 25.6804 31.9676C27.4313 31.9455 28.5359 30.5002 29.5817 29.0219C30.839 27.3449 31.3443 25.69 31.3678 25.6128C31.309 25.6018 27.9601 24.3992 27.9248 20.7585Z" fill="white"/>
<path d="M24.7169 11.8337C25.5982 10.8077 26.1975 9.40656 26.0212 7.98335C24.7522 8.03852 23.1658 8.8108 22.2493 9.81477C21.4385 10.6974 20.7217 12.1537 20.9097 13.5217C22.3315 13.621 23.8004 12.8487 24.7169 11.8337Z" fill="white"/>
<path d="M48.5231 28.3021H42.9651L41.6255 32.0091H39.2754L44.5397 18.3066H46.9838L52.2481 32.0091H49.8509L48.5231 28.3021ZM43.5409 26.5921H47.9473L45.7735 20.5793H45.7147L43.5409 26.5921Z" fill="white"/>
<path d="M63.6355 27.0111C63.6355 30.1113 61.8612 32.1082 59.1938 32.1082C57.678 32.1082 56.4794 31.4683 55.8449 30.365H55.7979V35.3076H53.6123V22.0134H55.7274V23.6793H55.7626C56.3737 22.6091 57.6662 21.9141 59.1468 21.9141C61.8612 21.9141 63.6355 23.911 63.6355 27.0111ZM61.3911 27.0111C61.3911 24.9921 60.2748 23.6572 58.5828 23.6572C56.9142 23.6572 55.7861 25.0142 55.7861 27.0111C55.7861 29.019 56.9142 30.376 58.5828 30.376C60.2748 30.376 61.3911 29.0521 61.3911 27.0111Z" fill="white"/>
<path d="M75.3368 27.0111C75.3368 30.1113 73.5624 32.1082 70.895 32.1082C69.3792 32.1082 68.1806 31.4683 67.5461 30.365H67.4991V35.3076H65.3252V22.0134H67.4403V23.6793H67.4756C68.0866 22.6091 69.3792 21.9141 70.8598 21.9141C73.5624 21.9141 75.3368 23.911 75.3368 27.0111ZM73.0924 27.0111C73.0924 24.9921 71.9761 23.6572 70.284 23.6572C68.6154 23.6572 67.4873 25.0142 67.4873 27.0111C67.4873 29.019 68.6154 30.376 70.284 30.376C71.9878 30.376 73.0924 29.0521 73.0924 27.0111Z" fill="white"/>
<path d="M83.0813 28.193C83.2458 29.5501 84.6441 30.4437 86.5712 30.4437C88.4161 30.4437 89.7321 29.55 89.7321 28.3254C89.7321 27.2663 88.9331 26.6264 87.0412 26.1851L85.1494 25.7548C82.4702 25.1481 81.2247 23.9676 81.2247 22.0589C81.2247 19.698 83.422 18.0762 86.536 18.0762C89.6146 18.0762 91.7297 19.698 91.8002 22.0589H89.5911C89.4619 20.6909 88.2516 19.8634 86.5007 19.8634C84.7499 19.8634 83.5395 20.7019 83.5395 21.9155C83.5395 22.8864 84.3033 23.449 86.1834 23.8903L87.7933 24.2654C90.7897 24.9274 92.0353 26.0638 92.0353 28.0607C92.0353 30.6202 89.8614 32.231 86.4067 32.231C83.1753 32.231 80.9896 30.6643 80.8486 28.182H83.0813V28.193Z" fill="white"/>
<path d="M96.7591 19.6523V22.0133H98.7802V23.6351H96.7591V29.1403C96.7591 30.0009 97.1586 30.3981 98.0517 30.3981C98.2749 30.3981 98.6275 30.365 98.7685 30.3539V31.9647C98.5217 32.0198 98.0399 32.064 97.5582 32.064C95.4078 32.064 94.5618 31.3027 94.5618 29.372V23.6461H93.0107V22.0243H94.5618V19.6523H96.7591Z" fill="white"/>
<path d="M99.9424 27.0117C99.9424 23.8674 101.917 21.8926 104.983 21.8926C108.062 21.8926 110.025 23.8674 110.025 27.0117C110.025 30.167 108.074 32.1308 104.983 32.1308C101.905 32.1308 99.9424 30.167 99.9424 27.0117ZM107.815 27.0117C107.815 24.8603 106.758 23.5806 104.995 23.5806C103.233 23.5806 102.175 24.8603 102.175 27.0117C102.175 29.174 103.221 30.4428 104.995 30.4428C106.77 30.4428 107.815 29.174 107.815 27.0117Z" fill="white"/>
<path d="M111.848 22.0146H113.928V23.7136H113.975C114.304 22.5883 115.279 21.9043 116.536 21.9043C116.853 21.9043 117.112 21.9484 117.288 21.9815V23.9012C117.112 23.835 116.736 23.7798 116.313 23.7798C114.903 23.7798 114.033 24.6735 114.033 26.0746V31.9991H111.848V22.0146Z" fill="white"/>
<path d="M127.347 29.0747C127.054 30.8841 125.173 32.1308 122.765 32.1308C119.674 32.1308 117.747 30.189 117.747 27.0558C117.747 23.9226 119.674 21.8926 122.671 21.8926C125.608 21.8926 127.465 23.7902 127.465 26.8241V27.5302H119.956V27.6516C119.956 29.3616 121.096 30.4759 122.823 30.4759C124.034 30.4759 124.985 29.9353 125.279 29.0747H127.347ZM119.968 26.0849H125.291C125.244 24.5514 124.198 23.5475 122.682 23.5475C121.178 23.5585 120.085 24.5845 119.968 26.0849Z" fill="white"/>
<path d="M43.2721 7.99414C45.352 7.99414 46.5741 9.19669 46.5741 11.2598C46.5741 13.367 45.3637 14.5696 43.2721 14.5696H40.7339V7.99414H43.2721ZM41.8267 13.6428H43.1428C44.6117 13.6428 45.4577 12.7823 45.4577 11.2708C45.4577 9.78142 44.5999 8.92088 43.1428 8.92088H41.8267V13.6428Z" fill="white"/>
<path d="M47.7974 12.0856C47.7974 10.4858 48.7492 9.50391 50.2885 9.50391C51.8279 9.50391 52.7797 10.4748 52.7797 12.0856C52.7797 13.6963 51.8279 14.6672 50.2885 14.6672C48.7492 14.6672 47.7974 13.6963 47.7974 12.0856ZM51.7103 12.0856C51.7103 11.0044 51.1933 10.3755 50.2885 10.3755C49.3837 10.3755 48.8667 11.0044 48.8667 12.0856C48.8667 13.1668 49.372 13.7956 50.2885 13.7956C51.2051 13.7956 51.7103 13.1668 51.7103 12.0856Z" fill="white"/>
<path d="M59.4177 14.5799H58.3367L57.2439 10.9171H57.1616L56.0688 14.5799H54.9995L53.5425 9.61523H54.6L55.5518 13.4104H55.6341L56.7269 9.61523H57.7257L58.8185 13.4104H58.9007L59.8408 9.61523H60.8866L59.4177 14.5799Z" fill="white"/>
<path d="M62.0952 9.60389H63.1058V10.3982H63.188C63.4466 9.8466 63.9753 9.51562 64.7626 9.51562C65.9377 9.51562 66.5958 10.1776 66.5958 11.3581V14.5796H65.55V11.6118C65.55 10.8175 65.1857 10.4203 64.4101 10.4203C63.6346 10.4203 63.141 10.9057 63.141 11.678V14.5796H62.0952V9.60389Z" fill="white"/>
<path d="M68.2544 7.67383H69.3003V14.5802H68.2544V7.67383Z" fill="white"/>
<path d="M70.7573 12.0856C70.7573 10.4858 71.7091 9.50391 73.2484 9.50391C74.7877 9.50391 75.7395 10.4748 75.7395 12.0856C75.7395 13.6963 74.7877 14.6672 73.2484 14.6672C71.6974 14.6672 70.7573 13.6963 70.7573 12.0856ZM74.6702 12.0856C74.6702 11.0044 74.1532 10.3755 73.2484 10.3755C72.3436 10.3755 71.8266 11.0044 71.8266 12.0856C71.8266 13.1668 72.3319 13.7956 73.2484 13.7956C74.1532 13.7956 74.6702 13.1668 74.6702 12.0856Z" fill="white"/>
<path d="M76.8433 13.1674C76.8433 12.2738 77.5483 11.7553 78.8056 11.6891L80.2392 11.6118V11.1816C80.2392 10.652 79.8749 10.3651 79.1581 10.3651C78.5706 10.3651 78.1711 10.5637 78.0536 10.9168H77.043C77.1488 10.0673 78.0066 9.51562 79.2051 9.51562C80.5329 9.51562 81.285 10.1335 81.285 11.1816V14.5796H80.2744V13.8846H80.1922C79.8749 14.381 79.2991 14.6679 78.6058 14.6679C77.5835 14.6568 76.8433 14.0831 76.8433 13.1674ZM80.2509 12.7482V12.329L78.9584 12.4062C78.2298 12.4503 77.9008 12.682 77.9008 13.1233C77.9008 13.5756 78.3121 13.8294 78.8761 13.8294C79.6634 13.8294 80.2509 13.366 80.2509 12.7482Z" fill="white"/>
<path d="M82.6602 12.0869C82.6602 10.5202 83.518 9.52731 84.8575 9.52731C85.5861 9.52731 86.1971 9.84725 86.4791 10.3989H86.5614V7.67383H87.6072V14.5802H86.5966V13.7969H86.5144C86.1971 14.3375 85.5861 14.6685 84.8575 14.6685C83.5062 14.6575 82.6602 13.6645 82.6602 12.0869ZM83.7412 12.0869C83.7412 13.146 84.27 13.7749 85.1513 13.7749C86.0326 13.7749 86.5731 13.135 86.5731 12.0869C86.5731 11.0498 86.0208 10.3989 85.1513 10.3989C84.27 10.4099 83.7412 11.0498 83.7412 12.0869Z" fill="white"/>
<path d="M91.9204 12.0856C91.9204 10.4858 92.8722 9.50391 94.4116 9.50391C95.9509 9.50391 96.9027 10.4748 96.9027 12.0856C96.9027 13.6963 95.9509 14.6672 94.4116 14.6672C92.8722 14.6672 91.9204 13.6963 91.9204 12.0856ZM95.8334 12.0856C95.8334 11.0044 95.3164 10.3755 94.4116 10.3755C93.5067 10.3755 92.9897 11.0044 92.9897 12.0856C92.9897 13.1668 93.495 13.7956 94.4116 13.7956C95.3164 13.7956 95.8334 13.1668 95.8334 12.0856Z" fill="white"/>
<path d="M98.311 9.60389H99.3216V10.3982H99.4039C99.6624 9.8466 100.191 9.51562 100.978 9.51562C102.154 9.51562 102.812 10.1776 102.812 11.3581V14.5796H101.766V11.6118C101.766 10.8175 101.402 10.4203 100.626 10.4203C99.8504 10.4203 99.3569 10.9057 99.3569 11.678V14.5796H98.311V9.60389Z" fill="white"/>
<path d="M108.714 8.36914V9.62685H109.865V10.4543H108.714V13.0138C108.714 13.5324 108.937 13.764 109.466 13.764C109.63 13.764 109.712 13.753 109.865 13.742V14.5584C109.701 14.5804 109.501 14.6135 109.301 14.6135C108.138 14.6135 107.68 14.2274 107.68 13.2676V10.4653H106.845V9.63788H107.68V8.36914H108.714Z" fill="white"/>
<path d="M111.272 7.67383H112.307V10.4099H112.389C112.647 9.85828 113.2 9.51627 113.999 9.51627C115.127 9.51627 115.82 10.1893 115.82 11.3697V14.5802H114.774V11.6125C114.774 10.8181 114.386 10.4209 113.646 10.4209C112.788 10.4209 112.318 10.9284 112.318 11.6787V14.5802H111.272V7.67383Z" fill="white"/>
<path d="M121.92 13.2336C121.685 14.1273 120.839 14.6679 119.629 14.6679C118.113 14.6679 117.185 13.697 117.185 12.1083C117.185 10.5196 118.137 9.51562 119.629 9.51562C121.098 9.51562 121.991 10.4644 121.991 12.02V12.3621H118.254V12.4172C118.29 13.2888 118.83 13.8404 119.664 13.8404C120.299 13.8404 120.734 13.6308 120.922 13.2336H121.92ZM118.254 11.6339H120.922C120.898 10.8506 120.393 10.3431 119.617 10.3431C118.842 10.3431 118.313 10.8616 118.254 11.6339Z" fill="white"/>
</svg>
