<svg width="150" height="42" viewBox="0 0 150 42" fill="none" xmlns="http://www.w3.org/2000/svg">
<rect x="0.5" y="0.5" width="149" height="41" rx="9.5" stroke="white"/>
<path d="M75.808 22.3041C73.1711 22.3041 71.0167 24.1837 71.0167 26.7667C71.0167 29.3392 73.1711 31.2292 75.808 31.2292C78.4449 31.2292 80.5993 29.3392 80.5993 26.7667C80.5993 24.1837 78.4449 22.3041 75.808 22.3041ZM75.808 29.4757C74.3605 29.4757 73.115 28.3627 73.115 26.7667C73.115 25.1602 74.3605 24.0577 75.808 24.0577C77.2555 24.0577 78.501 25.1602 78.501 26.7667C78.501 28.3627 77.2443 29.4757 75.808 29.4757ZM65.3502 22.3041C62.7132 22.3041 60.5588 24.1837 60.5588 26.7667C60.5588 29.3392 62.7132 31.2292 65.3502 31.2292C67.9871 31.2292 70.1415 29.3392 70.1415 26.7667C70.1415 24.1837 67.9871 22.3041 65.3502 22.3041ZM65.3502 29.4757C63.9027 29.4757 62.6571 28.3627 62.6571 26.7667C62.6571 25.1602 63.9027 24.0577 65.3502 24.0577C66.7976 24.0577 68.0432 25.1602 68.0432 26.7667C68.0432 28.3627 66.7976 29.4757 65.3502 29.4757ZM52.9174 23.6797V25.5697H57.7648C57.619 26.6302 57.2375 27.4177 56.6652 27.9532C55.9583 28.6147 54.8586 29.3392 52.9286 29.3392C49.9439 29.3392 47.6099 27.0922 47.6099 24.2992C47.6099 21.5061 49.9439 19.2591 52.9286 19.2591C54.5332 19.2591 55.7114 19.8471 56.5754 20.6136L58.0005 19.2801C56.7886 18.1986 55.184 17.3691 52.9174 17.3691C48.833 17.3691 45.3994 20.4771 45.3994 24.3097C45.3994 28.1317 48.833 31.2502 52.9174 31.2502C55.1279 31.2502 56.7886 30.5782 58.0902 29.3077C59.4255 28.0582 59.8407 26.2942 59.8407 24.8767C59.8407 24.4357 59.807 24.0262 59.7285 23.6902H52.9174V23.6797ZM103.759 25.1497C103.367 24.1522 102.155 22.3041 99.6749 22.3041C97.2175 22.3041 95.1753 24.1102 95.1753 26.7667C95.1753 29.2657 97.195 31.2292 99.9105 31.2292C102.099 31.2292 103.367 29.9797 103.883 29.2552L102.256 28.2367C101.717 28.9822 100.976 29.4757 99.9105 29.4757C98.8445 29.4757 98.0815 29.0137 97.599 28.1212L103.984 25.6537L103.759 25.1497ZM97.2511 26.6407C97.195 24.9187 98.6762 24.0367 99.7422 24.0367C100.573 24.0367 101.279 24.4252 101.515 24.9817L97.2511 26.6407ZM92.0671 30.9667H94.1654V17.8416H92.0671V30.9667ZM88.6335 23.3017H88.555C88.0837 22.7767 87.186 22.3041 86.0415 22.3041C83.6514 22.3041 81.4634 24.2677 81.4634 26.7877C81.4634 29.2867 83.6514 31.2397 86.0415 31.2397C87.1748 31.2397 88.0837 30.7672 88.555 30.2212H88.6223V30.8617C88.6223 32.5732 87.6461 33.4867 86.0751 33.4867C84.796 33.4867 83.9993 32.6257 83.6739 31.9012L81.8449 32.6152C82.3722 33.8017 83.7636 35.2507 86.0751 35.2507C88.5325 35.2507 90.6084 33.8962 90.6084 30.5992V22.5772H88.6223V23.3017H88.6335ZM86.221 29.4757C84.7735 29.4757 83.5617 28.3417 83.5617 26.7877C83.5617 25.2127 84.7735 24.0682 86.221 24.0682C87.6461 24.0682 88.7682 25.2232 88.7682 26.7877C88.7794 28.3417 87.6573 29.4757 86.221 29.4757ZM113.589 17.8416H108.573V30.9667H110.671V25.9897H113.6C115.923 25.9897 118.201 24.4147 118.201 21.9156C118.201 19.4166 115.9 17.8416 113.589 17.8416ZM113.634 24.1627H110.66V19.6581H113.634C115.205 19.6581 116.091 20.8761 116.091 21.9051C116.091 22.9342 115.205 24.1627 113.634 24.1627ZM126.583 22.2831C125.068 22.2831 123.497 22.9132 122.846 24.2887L124.709 25.0132C125.101 24.2887 125.842 24.0472 126.616 24.0472C127.705 24.0472 128.804 24.6562 128.815 25.7377V25.8742C128.434 25.6747 127.626 25.3702 126.627 25.3702C124.619 25.3702 122.588 26.3992 122.588 28.3207C122.588 30.0742 124.226 31.2082 126.066 31.2082C127.469 31.2082 128.254 30.6202 128.737 29.9272H128.804V30.9457H130.824V25.9162C130.835 23.5852 128.973 22.2831 126.583 22.2831ZM126.324 29.4757C125.64 29.4757 124.686 29.1502 124.686 28.3627C124.686 27.3547 125.876 26.9662 126.908 26.9662C127.828 26.9662 128.266 27.1552 128.815 27.4072C128.658 28.6147 127.536 29.4757 126.324 29.4757ZM138.196 22.5666L135.795 28.2577H135.728L133.237 22.5666H130.981L134.718 30.5257L132.586 34.9462H134.774L140.53 22.5666H138.196ZM119.345 30.9667H121.443V17.8416H119.345V30.9667Z" fill="white"/>
<path d="M52.5582 10.2206C52.5582 11.1026 52.2776 11.8061 51.7166 12.3206C51.0882 12.9401 50.2579 13.2551 49.248 13.2551C48.2718 13.2551 47.4526 12.9401 46.7682 12.3101C46.0837 11.6801 45.7471 10.8926 45.7471 9.96863C45.7471 9.03413 46.0837 8.25713 46.7682 7.62713C47.4526 6.99713 48.2718 6.68213 49.248 6.68213C49.7305 6.68213 50.1906 6.76613 50.6282 6.94463C51.0658 7.12313 51.4136 7.35413 51.6829 7.64813L51.0882 8.20463C50.6394 7.71113 50.0335 7.45913 49.248 7.45913C48.5411 7.45913 47.9239 7.69013 47.4078 8.16263C46.8916 8.62463 46.6335 9.23363 46.6335 9.97913C46.6335 10.7246 46.8916 11.3336 47.4078 11.7956C47.9239 12.2576 48.5411 12.4991 49.248 12.4991C49.9998 12.4991 50.6282 12.2681 51.1331 11.7956C51.4585 11.4911 51.6493 11.0606 51.6942 10.5146H49.248V9.74813H52.5133C52.5357 9.91613 52.5582 10.0736 52.5582 10.2206Z" fill="white" stroke="white" stroke-width="0.212744" stroke-miterlimit="10"/>
<path d="M57.7302 7.59536H54.6668V9.59036H57.4272V10.3464H54.6668V12.3414H57.7302V13.1184H53.8027V6.81836H57.7302V7.59536Z" fill="white" stroke="white" stroke-width="0.212744" stroke-miterlimit="10"/>
<path d="M61.3771 13.1184H60.513V7.59536H58.6279V6.81836H63.251V7.59536H61.3658V13.1184H61.3771Z" fill="white" stroke="white" stroke-width="0.212744" stroke-miterlimit="10"/>
<path d="M66.6064 13.1184V6.81836H67.4704V13.1184H66.6064Z" fill="white" stroke="white" stroke-width="0.212744" stroke-miterlimit="10"/>
<path d="M71.3087 13.1184H70.4447V7.59536H68.5596V6.81836H73.1826V7.59536H71.2975V13.1184H71.3087Z" fill="white" stroke="white" stroke-width="0.212744" stroke-miterlimit="10"/>
<path d="M81.9456 12.2991C81.2835 12.9397 80.4644 13.2547 79.477 13.2547C78.4896 13.2547 77.6704 12.9397 77.0084 12.2991C76.3464 11.6586 76.021 10.8816 76.021 9.96815C76.021 9.05464 76.3464 8.26714 77.0084 7.63714C77.6704 6.99664 78.4896 6.68164 79.477 6.68164C80.4532 6.68164 81.2723 6.99664 81.9456 7.63714C82.6076 8.27764 82.9442 9.05464 82.9442 9.96815C82.933 10.8921 82.6076 11.6691 81.9456 12.2991ZM77.648 11.7741C78.1417 12.2466 78.7589 12.4776 79.477 12.4776C80.1951 12.4776 80.8123 12.2466 81.306 11.7741C81.7997 11.3016 82.0578 10.7031 82.0578 9.96815C82.0578 9.23314 81.8109 8.63464 81.306 8.16214C80.8123 7.68964 80.1951 7.44814 79.477 7.44814C78.7589 7.44814 78.1417 7.67914 77.648 8.15164C77.1543 8.63464 76.8962 9.23314 76.8962 9.96815C76.8962 10.7031 77.1543 11.3016 77.648 11.7741Z" fill="white" stroke="white" stroke-width="0.212744" stroke-miterlimit="10"/>
<path d="M84.1572 13.1184V6.81836H85.212L88.4884 11.7219H88.5221L88.4884 10.5039V6.81836H89.3524V13.1184H88.4548L85.0324 7.98386H84.9988L85.0324 9.20186V13.1184H84.1572Z" fill="white" stroke="white" stroke-width="0.212744" stroke-miterlimit="10"/>
<path d="M11.0611 7.386C10.7357 7.7115 10.5449 8.2155 10.5449 8.856V32.0821C10.5449 32.7331 10.7357 33.2371 11.0611 33.5521L11.1396 33.6256L25.0424 20.6265V20.469V20.3115L11.1396 7.3125L11.0611 7.386Z" fill="url(#paint0_linear_705_891)"/>
<path d="M29.6782 24.9627L25.0439 20.6261V20.4686V20.3111L29.6782 15.9746L29.7792 16.0271L35.2663 18.9461C36.8372 19.7756 36.8372 21.1406 35.2663 21.9807L29.7792 24.8997L29.6782 24.9627Z" fill="url(#paint1_linear_705_891)"/>
<path d="M29.7789 24.9103L25.0437 20.4688L11.0625 33.5518C11.5787 34.0663 12.4314 34.1293 13.3964 33.6148L29.7789 24.9103Z" fill="url(#paint2_linear_705_891)"/>
<path d="M29.7798 16.0376L13.3862 7.32262C12.4212 6.80811 11.5684 6.87111 11.0522 7.38562L25.0446 20.4686L29.7798 16.0376Z" fill="url(#paint3_linear_705_891)"/>
<path opacity="0.2" d="M29.6789 24.8047L13.3862 33.4672C12.4773 33.9502 11.6582 33.9187 11.142 33.4777L11.0635 33.5512L11.142 33.6247C11.6694 34.0657 12.4773 34.0972 13.3862 33.6142L29.7799 24.8992L29.6789 24.8047Z" fill="#010202"/>
<path opacity="0.12" d="M11.0621 33.4036C10.7367 33.0781 10.5459 32.5741 10.5459 31.9336V32.0911C10.5459 32.7421 10.7367 33.2461 11.0621 33.5611L11.1407 33.4876L11.0621 33.4036Z" fill="#010202"/>
<path opacity="0.12" d="M35.2662 21.8337L29.667 24.8052L29.768 24.8997L35.255 21.9807C36.0405 21.5607 36.4332 21.0147 36.4332 20.4688C36.3771 20.9622 35.9844 21.4557 35.2662 21.8337Z" fill="#010202"/>
<path opacity="0.25" d="M13.3863 7.47029L35.2671 19.1043C35.974 19.4823 36.378 19.9653 36.4453 20.4693C36.4453 19.9233 36.0526 19.3668 35.2671 18.9573L13.3863 7.32329C11.8153 6.49379 10.5361 7.18679 10.5361 8.86679V9.0243C10.5361 7.3338 11.8265 6.64079 13.3863 7.47029Z" fill="white"/>
<defs>
<linearGradient id="paint0_linear_705_891" x1="23.8076" y1="8.61429" x2="6.22484" y2="27.4043" gradientUnits="userSpaceOnUse">
<stop stop-color="#00A0FF"/>
<stop offset="0.00657445" stop-color="#00A1FF"/>
<stop offset="0.2601" stop-color="#00BEFF"/>
<stop offset="0.5122" stop-color="#00D2FF"/>
<stop offset="0.7604" stop-color="#00DFFF"/>
<stop offset="1" stop-color="#00E3FF"/>
</linearGradient>
<linearGradient id="paint1_linear_705_891" x1="37.3133" y1="20.4702" x2="10.162" y2="20.4702" gradientUnits="userSpaceOnUse">
<stop stop-color="#FFE000"/>
<stop offset="0.4087" stop-color="#FFBD00"/>
<stop offset="0.7754" stop-color="#FFA500"/>
<stop offset="1" stop-color="#FF9C00"/>
</linearGradient>
<linearGradient id="paint2_linear_705_891" x1="27.2059" y1="22.8798" x2="3.3622" y2="48.3604" gradientUnits="userSpaceOnUse">
<stop stop-color="#FF3A44"/>
<stop offset="1" stop-color="#C31162"/>
</linearGradient>
<linearGradient id="paint3_linear_705_891" x1="7.53698" y1="-0.346278" x2="18.1842" y2="11.0318" gradientUnits="userSpaceOnUse">
<stop stop-color="#32A071"/>
<stop offset="0.0685" stop-color="#2DA771"/>
<stop offset="0.4762" stop-color="#15CF74"/>
<stop offset="0.8009" stop-color="#06E775"/>
<stop offset="1" stop-color="#00F076"/>
</linearGradient>
</defs>
</svg>
